<svg width="138" height="33" viewBox="0 0 138 33" fill="none" xmlns="http://www.w3.org/2000/svg">
    <path d="M75.9668 9.08173H80.6138L72.1094 31.7133H68.7549L54.5825 0.104492H59.2295L70.4346 25.2507L75.9668 9.08173Z"
        fill="#339CFF" />
    <path
        d="M89.3544 30.8781C87.9665 30.1152 86.8503 28.9394 86.1608 27.5136C85.3876 25.8454 85.0123 24.0205 85.0645 22.1825V18.5012C85.0123 16.6844 85.3878 14.8805 86.1608 13.2355C86.8507 11.8176 87.9676 10.6516 89.3544 9.90118C90.9243 9.14889 92.6429 8.7583 94.3837 8.7583C96.1244 8.7583 97.843 9.14889 99.4129 9.90118C100.8 10.6516 101.917 11.8176 102.606 13.2355C103.381 14.8801 103.759 16.684 103.708 18.5012V22.2329C103.759 24.0567 103.382 25.867 102.606 27.5185C101.912 28.9355 100.796 30.1037 99.4129 30.8631C97.8445 31.6204 96.1253 32.0136 94.3837 32.0136C92.642 32.0136 90.9228 31.6204 89.3544 30.8631V30.8781ZM97.9997 26.3518C98.8496 25.3761 99.2721 24.0132 99.2721 22.253V18.5061C99.2721 16.7459 98.8479 15.3864 97.9997 14.4275C97.0252 13.5039 95.7338 12.9892 94.3912 12.9892C93.0486 12.9892 91.7571 13.5039 90.7827 14.4275C89.9311 15.3864 89.507 16.7459 89.5103 18.5061V22.2329C89.5103 23.9931 89.9328 25.356 90.7827 26.3317C91.7512 27.2667 93.0449 27.7893 94.3912 27.7893C95.7374 27.7893 97.0312 27.2667 97.9997 26.3317V26.3518Z"
        fill="#339CFF" />
    <path
        d="M117.051 25.8642C117.022 26.3181 117.148 26.7682 117.408 27.1414C117.529 27.2885 117.684 27.4058 117.858 27.4834C118.033 27.5611 118.223 27.5971 118.414 27.589H120.506V31.8187H117.891C116.206 31.8187 114.873 31.3157 113.978 30.2495C113.083 29.1833 112.595 27.735 112.595 25.8239V0.0136719H117.041L117.051 25.8642Z"
        fill="#339CFF" />
    <path
        d="M133.964 25.8642C133.934 26.3189 134.062 26.7699 134.326 27.1414C134.447 27.2898 134.601 27.4076 134.775 27.4854C134.95 27.5632 135.141 27.5987 135.332 27.589H137.424V31.8187H134.809C134.081 31.8614 133.353 31.7427 132.677 31.4715C132.001 31.2002 131.392 30.783 130.896 30.2495C129.976 29.2034 129.513 27.735 129.513 25.8239V0.0136719H133.959L133.964 25.8642Z"
        fill="#339CFF" />
    <path
        d="M48.0545 7.14514L52.0779 9.20717L35.7128 26.6185L32.5997 25.3209L33.4798 2.21143H37.7798L36.6885 19.9596L48.0545 7.14514Z"
        fill="#339CFF" />
    <path
        d="M25.0507 2.21143H29.3657L30.1 25.713L26.9869 26.9956L10.4558 9.22215L14.7659 7.45185L26.0716 20.342L25.0507 2.21143Z"
        fill="#339CFF" />
    <path
        d="M6.08035 16.3488L7.87579 12.0439L25.5536 28.6755L24.251 31.7837L0 31.7483L1.79543 27.4484L18.8948 27.725L6.08035 16.3488Z"
        fill="#339CFF" />
    <path
        d="M43.6187 27.6594L60.7181 27.4733L62.4884 31.7884L38.2273 31.6877L36.9499 28.5697L54.7182 12.0386L56.4885 16.3537L43.6187 27.6594Z"
        fill="#339CFF" />
</svg>